# xmcd CD database file
#
# Track frame offsets:
#	150
#	28397
#	55726
#	83701
#	106367
#	126612
#	151339
#	184746
#	209603
#	230418
#	258467
#
# Disc length: 3813 seconds
#
# Revision: 0
# Processed by: cddbd v1.5PL3 Copyright (c) Steve Scherf et al.
# Submitted via: CDex 1.51
#
DISCID=9c0ee30b
DTITLE=Jos Van Beest Trio - Because of you
DYEAR=1993
DGENRE=Jazz
TTITLE0=What are you doing the rest of your life
TTITLE1=There's no greater love
TTITLE2=The shadow of your smile
TTITLE3=Because of you
TTITLE4=The days of wine and roses
TTITLE5=Yours is my heart alone
TTITLE6=In a sentimental mood
TTITLE7=Blue Bossa in de Amsterdamse grachten
TTITLE8=Once I loved
TTITLE9=Michelle with Wave
TTITLE10=Blues for Monty
EXTD=YEAR: 1993
EXTT0=
EXTT1=
EXTT2=
EXTT3=
EXTT4=
EXTT5=
EXTT6=
EXTT7=
EXTT8=
EXTT9=
EXTT10=
PLAYORDER=
